<?xml version="1.0" encoding="utf-8"?>
<!-- Generator: Adobe Illustrator 28.0.0, SVG Export Plug-In . SVG Version: 6.00 Build 0)  -->
<svg version="1.1" id="Слой_1" xmlns="http://www.w3.org/2000/svg" xmlns:xlink="http://www.w3.org/1999/xlink" x="0px" y="0px"
	 viewBox="0 0 24 24" style="enable-background:new 0 0 24 24;" xml:space="preserve">
<style type="text/css">
	.st0{fill:#6E0359;}
</style>
<g>
	<path class="st0" d="M7,6V3c0-0.6,0.4-1,1-1h12c0.6,0,1,0.4,1,1v14c0,0.6-0.4,1-1,1h-3v3c0,0.6-0.5,1-1,1H4c-0.6,0-1-0.4-1-1
		c0,0,0,0,0,0L3,7c0-0.6,0.5-1,1-1H7z M9,6h8v10h2V4H9V6z"/>
</g>
</svg>
